<svg width="24" height="24" viewBox="0 0 24 24" fill="none" xmlns="http://www.w3.org/2000/svg">
<path fill-rule="evenodd" clip-rule="evenodd" d="M11 5.5C11 5.22386 11.2239 5 11.5 5H12H12.5C12.7761 5 13 5.22386 13 5.5C13 5.77614 13.2239 6 13.5 6C13.7761 6 14 6.22386 14 6.5C14 6.77614 14.2239 7 14.5 7C14.7761 7 15 7.22386 15 7.5C15 7.77614 15.2239 8 15.5 8C15.7761 8 16 8.22386 16 8.5C16 8.77614 16.2239 9 16.5 9C16.7761 9 17 9.22386 17 9.5C17 9.77614 17.2239 10 17.5 10C17.7761 10 18 10.2239 18 10.5C18 10.7761 18.2239 11 18.5 11C18.7761 11 19 11.2239 19 11.5V12V12.5C19 12.7761 18.7761 13 18.5 13C18.2239 13 18 13.2239 18 13.5C18 13.7761 17.7761 14 17.5 14C17.2239 14 17 14.2239 17 14.5C17 14.7761 16.7761 15 16.5 15C16.2239 15 16 15.2239 16 15.5C16 15.7761 15.7761 16 15.5 16C15.2239 16 15 16.2239 15 16.5C15 16.7761 14.7761 17 14.5 17C14.2239 17 14 17.2239 14 17.5C14 17.7761 13.7761 18 13.5 18C13.2239 18 13 18.2239 13 18.5C13 18.7761 12.7761 19 12.5 19H12H11.5C11.2239 19 11 18.7761 11 18.5V18V17.5C11 17.2239 11.2239 17 11.5 17C11.7761 17 12 16.7761 12 16.5C12 16.2239 12.2239 16 12.5 16C12.7761 16 13 15.7761 13 15.5C13 15.2239 13.2239 15 13.5 15C13.7761 15 14 14.7761 14 14.5C14 14.2239 14.2239 14 14.5 14C14.7761 14 15 13.7761 15 13.5C15 13.2239 14.7761 13 14.5 13H14H13H12H11H10H9H8H7H6H5.5C5.22386 13 5 12.7761 5 12.5V12V11.5C5 11.2239 5.22386 11 5.5 11H6H7H8H9H10H11H12H13H14H14.5C14.7761 11 15 10.7761 15 10.5C15 10.2239 14.7761 10 14.5 10C14.2239 10 14 9.77614 14 9.5C14 9.22386 13.7761 9 13.5 9C13.2239 9 13 8.77614 13 8.5C13 8.22386 12.7761 8 12.5 8C12.2239 8 12 7.77614 12 7.5C12 7.22386 11.7761 7 11.5 7C11.2239 7 11 6.77614 11 6.5V6V5.5Z" fill="black"/>
</svg>
